<?xml version="1.0" standalone="no"?>
<!DOCTYPE svg PUBLIC "-//W3C//DTD SVG 20010904//EN"
 "http://www.w3.org/TR/2001/REC-SVG-20010904/DTD/svg10.dtd">
<svg version="1.0" xmlns="http://www.w3.org/2000/svg"
 width="944.000000pt" height="590.000000pt" viewBox="0 0 944.000000 590.000000"
 preserveAspectRatio="xMidYMid meet">

<g transform="translate(0.000000,590.000000) scale(0.100000,-0.100000)"
fill="#D4D4D8" stroke="none">
<path d="M4325 5436 c-61 -14 -236 -76 -290 -104 -54 -27 -141 -90 -200 -144
-121 -110 -193 -223 -280 -440 -60 -149 -133 -227 -295 -315 -222 -119 -437
-280 -596 -445 -44 -46 -134 -125 -201 -175 -164 -126 -317 -259 -481 -418
l-137 -133 -477 -187 -477 -188 -36 -54 c-19 -29 -31 -53 -27 -53 5 0 107 29
228 64 301 88 364 100 364 72 0 -29 -38 -51 -310 -177 -154 -71 -449 -220
-679 -343 -281 -150 -373 -227 -268 -225 69 1 149 27 667 221 272 102 515 191
540 198 91 25 201 17 395 -29 99 -24 214 -58 255 -76 159 -69 241 -88 367 -83
79 3 94 1 105 -15 15 -20 460 -147 518 -147 27 0 50 -12 104 -55 l69 -55 86 1
c47 0 95 4 106 8 16 6 66 -23 240 -139 121 -80 259 -168 308 -195 48 -27 87
-52 87 -55 0 -4 -35 -13 -77 -20 -43 -7 -114 -23 -158 -37 -74 -23 -85 -30
-150 -96 -38 -40 -87 -97 -107 -128 l-36 -55 -607 -300 -607 -299 6 -65 c16
-181 96 -302 224 -340 48 -15 23 -25 492 203 124 60 261 126 305 147 44 21
154 74 245 117 91 44 431 209 755 365 325 157 629 305 678 328 79 39 90 48
114 93 21 37 45 61 99 98 70 47 73 48 101 34 55 -29 85 -17 99 39 6 25 24 37
143 93 l136 65 20 -28 c102 -139 275 -321 401 -422 186 -148 398 -257 638
-326 317 -92 718 -94 1043 -5 432 119 824 410 1083 805 68 103 160 295 199
413 100 301 122 666 60 988 -152 787 -840 1425 -1623 1502 -209 21 -489 10
-641 -25 -374 -86 -690 -265 -956 -541 -306 -319 -477 -675 -519 -1083 -30
-288 1 -601 82 -844 24 -71 27 -90 16 -97 -7 -5 -18 -9 -23 -9 -6 0 -62 -27
-125 -60 -93 -48 -123 -60 -157 -58 -54 2 -83 -22 -83 -67 0 -45 -18 -49 -249
-46 l-194 3 -161 48 c-89 26 -242 81 -341 122 l-180 75 3 44 c3 36 -2 52 -27
86 l-30 42 97 51 c457 243 740 593 898 1109 l36 116 -5 165 c-4 112 -12 197
-27 264 -20 92 -31 122 -74 201 -34 63 -23 110 79 348 l95 222 144 99 c144 99
145 99 122 117 -45 36 -110 62 -207 85 -61 15 -137 42 -193 70 -128 63 -243
92 -375 92 -58 1 -133 -5 -166 -12z m296 -249 c33 -73 21 -119 -36 -143 -63
-26 -125 -13 -169 35 -21 24 -16 58 15 103 24 33 51 49 99 58 47 9 68 -4 91
-53z m2904 -642 c321 -52 601 -205 846 -463 195 -204 320 -443 380 -720 27
-126 37 -392 19 -527 -52 -415 -253 -754 -610 -1032 -176 -136 -410 -236 -654
-278 -116 -20 -381 -20 -504 0 -311 51 -571 181 -804 403 -249 238 -399 514
-455 842 -25 147 -23 424 5 567 43 216 129 419 247 579 281 382 645 597 1087
644 107 11 328 4 443 -15z m-3910 -2294 c47 -25 102 -27 174 -5 l53 15 256
-112 c142 -61 261 -115 266 -120 5 -5 -5 -29 -25 -58 -37 -54 -116 -101 -168
-101 -67 0 -232 73 -409 180 -98 59 -196 119 -219 135 l-41 27 18 30 c10 16
15 39 12 51 l-5 22 24 -21 c13 -12 42 -31 64 -43z m268 -629 c3 -4 -28 -24
-69 -44 -41 -20 -74 -35 -74 -33 0 2 24 22 53 44 50 39 80 50 90 33z"/>
<path d="M8515 3645 c17 -151 23 -236 24 -385 8 -817 -382 -1319 -1161 -1494
-124 -28 -400 -66 -478 -66 -102 0 -44 -26 110 -50 94 -14 310 -12 420 5 275
41 563 182 756 371 234 228 388 506 441 798 23 125 22 369 -1 501 -19 105 -63
255 -97 327 l-19 43 5 -50z"/>
</g>
</svg>
